HIERARCHY
ROOT Hips
{
	OFFSET 292.461487 92.071327 404.531097
	CHANNELS 6 Xposition Yposition Zposition Zrotation Yrotation Xrotation 
	JOINT LeftUpLeg
	{
		OFFSET 0.103459 1.857814 10.548504
		CHANNELS 3 Zrotation Yrotation Xrotation
		JOINT LeftLeg
		{
			OFFSET 43.500000 -0.000004 -0.000011
			CHANNELS 3 Zrotation Yrotation Xrotation
			JOINT LeftFoot
			{
				OFFSET 42.372196 -0.000004 0.000004
				CHANNELS 3 Zrotation Yrotation Xrotation
				JOINT LeftToe
				{
					OFFSET 17.300003 0.000001 -0.000008
					CHANNELS 3 Zrotation Yrotation Xrotation
					End Site
					{
						OFFSET 0.000000 0.000000 0.000000
					}
				}
			}
		}
	}
	JOINT RightUpLeg
	{
		OFFSET 0.103457 1.857841 -10.548511
		CHANNELS 3 Zrotation Yrotation Xrotation
		JOINT RightLeg
		{
			OFFSET 43.500042 -0.000038 0.000000
			CHANNELS 3 Zrotation Yrotation Xrotation
			JOINT RightFoot
			{
				OFFSET 42.372269 -0.000023 0.000011
				CHANNELS 3 Zrotation Yrotation Xrotation
				JOINT RightToe
				{
					OFFSET 17.300003 -0.000001 0.000023
					CHANNELS 3 Zrotation Yrotation Xrotation
					End Site
					{
						OFFSET 0.000000 0.000000 0.000000
					}
				}
			}
		}
	}
	JOINT Spine
	{
		OFFSET 6.901971 -2.603744 -0.000012
		CHANNELS 3 Zrotation Yrotation Xrotation
		JOINT Spine1
		{
			OFFSET 12.588097 -0.000002 0.000018
			CHANNELS 3 Zrotation Yrotation Xrotation
			JOINT Spine2
			{
				OFFSET 12.343208 0.000014 -0.000019
				CHANNELS 3 Zrotation Yrotation Xrotation
				JOINT Neck
				{
					OFFSET 25.832897 0.000008 0.000016
					CHANNELS 3 Zrotation Yrotation Xrotation
					JOINT Head
					{
						OFFSET 11.766600 -0.000006 0.000008
						CHANNELS 3 Zrotation Yrotation Xrotation
						End Site
						{
							OFFSET 0.000000 0.000000 0.000000
						}
					}
				}
				JOINT LeftShoulder
				{
					OFFSET 19.745909 -1.480356 6.000120
					CHANNELS 3 Zrotation Yrotation Xrotation
					JOINT LeftArm
					{
						OFFSET 11.284115 -0.000000 -0.000025
						CHANNELS 3 Zrotation Yrotation Xrotation
						JOINT LeftForeArm
						{
							OFFSET 33.000057 0.000003 0.000029
							CHANNELS 3 Zrotation Yrotation Xrotation
							JOINT LeftHand
							{
								OFFSET 25.200006 0.000029 0.000011
								CHANNELS 3 Zrotation Yrotation Xrotation
								End Site
								{
									OFFSET 0.000000 0.000000 0.000000
								}
							}
						}
					}
				}
				JOINT RightShoulder
				{
					OFFSET 19.746088 -1.480379 -6.000049
					CHANNELS 3 Zrotation Yrotation Xrotation
					JOINT RightArm
					{
						OFFSET 11.284159 -0.000019 -0.000011
						CHANNELS 3 Zrotation Yrotation Xrotation
						JOINT RightForeArm
						{
							OFFSET 33.000076 -0.000001 0.000001
							CHANNELS 3 Zrotation Yrotation Xrotation
							JOINT RightHand
							{
								OFFSET 25.199781 0.000139 0.000430
								CHANNELS 3 Zrotation Yrotation Xrotation
								End Site
								{
									OFFSET 0.000000 0.000000 0.000000
								}
							}
						}
					}
				}
			}
		}
	}
}
MOTION
Frames: 11
Frame Time: 0.033333
292.461487 92.071327 404.531097 90.267029 3.703314 88.782685 -175.077624 -1.857690 -178.788739 -8.332778 -2.851283 -3.957342 82.225949 2.488124 -1.495207 21.454558 0.003093 0.000002 -178.144325 1.722107 178.240862 -14.279713 1.595423 0.681904 83.636226 -0.366896 0.741861 21.454558 -0.003115 -0.000019 6.155179 -0.175980 0.456444 2.296136 -0.349779 0.909455 1.978073 -0.344412 0.911591 19.167077 6.817174 -0.558525 -19.201989 -3.635117 0.726096 -74.181127 -77.775822 -108.748161 -13.819988 -5.518698 -9.694020 -5.983387 -11.415952 0.761225 11.548762 3.384504 1.846466 -112.362882 87.638929 69.503349 -2.247322 3.690460 10.916536 -13.753807 16.399272 -1.135516 17.890651 3.666443 -7.926408 
292.460693 92.069878 404.536285 90.267042 3.710209 88.794126 -175.069551 -1.857688 -178.788726 -8.332771 -2.851276 -3.950469 82.225949 2.482140 -1.500799 21.454550 0.003084 -0.000002 -178.133137 1.722115 178.239688 -14.279706 1.595426 0.689232 83.644880 -0.371925 0.741867 21.454560 -0.003103 -0.000016 6.153484 -0.175977 0.455163 2.292721 -0.349783 0.906913 1.974669 -0.344419 0.909056 19.167073 6.817186 -0.558533 -19.174849 -3.630999 0.724141 -74.253124 -77.775808 -108.675734 -13.808480 -5.505549 -9.704707 -5.988238 -11.424819 0.761216 11.546898 3.399583 1.862505 -112.367110 87.623643 69.500330 -2.247322 3.664500 10.934106 -13.752148 16.401682 -1.135517 17.902228 3.653469 -7.912982 
292.453705 92.066101 404.548401 90.267036 3.722556 88.854149 -175.061041 -1.863091 -178.788739 -8.332762 -2.846883 -3.918940 82.225956 2.455808 -1.520904 21.454551 0.003075 -0.000002 -178.102141 1.719891 178.255684 -14.279716 1.595425 0.715895 83.669373 -0.389665 0.741856 21.454560 -0.003105 -0.000017 6.145658 -0.175973 0.446569 2.277132 -0.349786 0.889766 1.959066 -0.344414 0.891879 19.170651 6.806108 -0.561256 -19.106952 -3.579857 0.698948 -74.503266 -77.776081 -108.426917 -13.806440 -5.464451 -9.717443 -6.018799 -11.472269 0.761219 11.523638 3.410463 1.951924 -112.158209 87.570129 69.713057 -2.254486 3.581514 11.006334 -13.740864 16.387200 -1.135532 17.677793 3.665014 -7.826760 
292.442810 92.063683 404.557007 90.267022 3.727252 88.909535 -175.056205 -1.874401 -178.800911 -8.330882 -2.841384 -3.878576 82.225963 2.423122 -1.541701 21.454553 0.003089 -0.000000 -178.079151 1.710206 178.270273 -14.271460 1.595431 0.741988 83.684010 -0.407351 0.741860 21.454558 -0.003110 -0.000017 6.136611 -0.175968 0.439546 2.259020 -0.349784 0.875765 1.940969 -0.344420 0.877875 19.178037 6.701368 -0.594615 -19.046071 -3.403885 0.594188 -74.762390 -77.761137 -108.170362 -13.815851 -5.430291 -9.634669 -6.081869 -11.556321 0.766608 11.470769 3.418577 2.025540 -111.672363 87.509429 70.204639 -2.271232 3.477847 11.016675 -13.755315 16.419242 -1.135521 17.643434 3.612480 -7.760084 
292.430511 92.062393 404.562012 90.267022 3.724892 88.956336 -175.055085 -1.885501 -178.809749 -8.319479 -2.833504 -3.846527 82.219413 2.395927 -1.563320 21.454555 0.003095 0.000001 -178.065846 1.699203 178.263279 -14.258390 1.601182 0.775319 83.691107 -0.430586 0.741862 21.454557 -0.003104 -0.000017 6.128810 -0.175970 0.434858 2.243458 -0.349788 0.866410 1.925390 -0.344402 0.868510 19.128657 6.474789 -0.663068 -18.929693 -3.060650 0.391202 -75.068840 -77.747531 -107.866036 -13.810000 -5.418946 -9.445860 -6.207245 -11.670398 0.773964 11.459241 3.439595 1.954299 -110.977385 87.429147 70.907766 -2.301017 3.372644 10.984427 -13.789462 16.474650 -1.135526 17.680431 3.654147 -7.702517 
292.417297 92.061897 404.564392 90.267029 3.717048 88.993444 -175.058636 -1.895783 -178.828655 -8.305889 -2.822999 -3.815056 82.210991 2.369901 -1.581329 21.454551 0.003087 -0.000001 -178.060846 1.689104 178.242188 -14.243796 1.612521 0.809992 83.693101 -0.455365 0.741867 21.454558 -0.003105 -0.000017 6.121476 -0.175971 0.433944 2.228755 -0.353570 0.862888 1.910694 -0.348207 0.865005 19.032720 6.260149 -0.762825 -18.755925 -2.721235 0.158021 -75.276300 -77.737156 -107.660386 -13.786437 -5.400498 -9.263615 -6.333413 -11.795309 0.782027 11.345072 3.305223 1.846980 -110.821247 87.335969 71.070495 -2.321234 3.297538 10.990380 -13.843391 16.502943 -1.135513 17.727061 3.761441 -7.687130 
292.403290 92.061897 404.564087 90.267029 3.705003 89.019891 -175.069742 -1.907801 -178.855088 -8.298749 -2.811867 -3.783465 82.205220 2.345416 -1.591980 21.454550 0.003091 -0.000001 -178.064630 1.677991 178.214471 -14.231350 1.626949 0.840919 83.690547 -0.478008 0.737062 21.454560 -0.003112 -0.000018 6.114693 -0.175970 0.434832 2.215190 -0.360039 0.864795 1.897131 -0.354674 0.866948 18.992647 6.087488 -0.921874 -18.746378 -2.525467 -0.082589 -75.399981 -77.731528 -107.537886 -13.750478 -5.379973 -9.124188 -6.423208 -11.903559 0.788991 11.232843 3.164065 1.862632 -110.920086 87.254833 70.977127 -2.319324 3.233170 11.030940 -13.907273 16.507705 -1.135535 17.771172 3.843347 -7.760720 
292.387604 92.062202 404.561615 90.263402 3.687897 89.037123 -175.091052 -1.921403 -178.877559 -8.301413 -2.802256 -3.758449 82.204940 2.327314 -1.594621 21.454553 0.003098 0.000000 -178.078755 1.666509 178.198065 -14.224574 1.641053 0.858767 83.685725 -0.492204 0.729264 21.454558 -0.003104 -0.000016 6.107501 -0.180551 0.436858 2.200771 -0.369183 0.870323 1.882699 -0.363769 0.872529 18.993802 5.988953 -1.056044 -18.812496 -2.435489 -0.257695 -75.401552 -77.733283 -107.536465 -13.701101 -5.366825 -9.026405 -6.473239 -11.963988 0.792875 11.174189 3.102803 1.823915 -111.057551 87.192508 70.843685 -2.318292 3.176716 11.031216 -13.913202 16.486798 -1.135527 17.791010 3.977781 -7.718676 
292.369904 92.062767 404.558014 90.257965 3.670008 89.050087 -175.115709 -1.938093 -178.894921 -8.309057 -2.795072 -3.737885 82.208293 2.313353 -1.592875 21.454551 0.003091 -0.000000 -178.094068 1.652213 178.183598 -14.217456 1.653904 0.872936 83.678710 -0.503699 0.722089 21.454558 -0.003106 -0.000017 6.100860 -0.185745 0.440954 2.187449 -0.379590 0.878448 1.869382 -0.374144 0.880724 19.015967 5.924205 -1.157124 -18.886767 -2.355119 -0.395327 -75.312651 -77.721508 -107.626323 -13.684881 -5.359438 -9.079970 -6.466546 -11.979418 0.794643 11.143631 3.108897 1.905335 -111.095677 87.142887 70.808797 -2.309854 3.123188 10.994328 -13.885160 16.430442 -1.135511 17.832468 4.190907 -7.542514 
292.348907 92.063293 404.555206 90.248437 3.657121 89.063659 -175.137225 -1.962606 -178.899552 -8.320945 -2.792808 -3.723439 82.215363 2.303270 -1.593381 21.454551 0.003091 -0.000002 -178.098644 1.630708 178.179363 -14.203186 1.661599 0.882868 83.669489 -0.511619 0.717568 21.454557 -0.003116 -0.000017 6.096006 -0.190245 0.445407 2.177662 -0.388673 0.887649 1.859601 -0.383181 0.889993 19.017876 5.879807 -1.221262 -18.859781 -2.274492 -0.494938 -75.168342 -77.696544 -107.772462 -13.682922 -5.361328 -9.202131 -6.438304 -11.958348 0.796123 11.127838 3.117179 1.952440 -110.998729 87.102677 70.909009 -2.288429 3.039578 11.041989 -13.894079 16.437689 -1.135708 17.860501 4.291670 -7.525667 
292.324799 92.063881 404.553314 90.235767 3.648886 89.079368 -175.154040 -1.994396 -178.883652 -8.332691 -2.796424 -3.719010 82.223777 2.298229 -1.602709 21.454553 0.003098 0.000002 -178.091636 1.601806 178.209444 -14.179428 1.659713 0.885486 83.657748 -0.512018 0.716463 21.454557 -0.003117 -0.000018 6.092301 -0.194154 0.447711 2.170218 -0.396683 0.891802 1.852155 -0.391146 0.894175 19.022616 5.851098 -1.249052 -18.799134 -2.218062 -0.547462 -75.029765 -77.662406 -107.913731 -13.680152 -5.365358 -9.269254 -6.446513 -11.956167 0.797408 11.167491 3.117599 1.873609 -110.836854 87.049716 71.075495 -2.308325 2.990570 11.032377 -13.859871 16.462906 -1.136273 17.728386 4.221542 -7.510060 
